<?xml version="1.0" standalone="no"?><svg xmlns="http://www.w3.org/2000/svg" viewBox="0 0 1440 320"><path fill="#0099ff" fill-opacity="1" d="M0,192L26.7,176C53.3,160,107,128,160,106.7C213.3,85,267,75,320,101.3C373.3,128,427,192,480,224C533.3,256,587,256,640,261.3C693.3,267,747,277,800,245.3C853.3,213,907,139,960,122.7C1013.3,107,1067,149,1120,181.3C1173.3,213,1227,235,1280,234.7C1333.3,235,1387,213,1413,202.7L1440,192L1440,0L1413.3,0C1386.7,0,1333,0,1280,0C1226.7,0,1173,0,1120,0C1066.7,0,1013,0,960,0C906.7,0,853,0,800,0C746.7,0,693,0,640,0C586.7,0,533,0,480,0C426.7,0,373,0,320,0C266.7,0,213,0,160,0C106.7,0,53,0,27,0L0,0Z"></path></svg>